<?xml version="1.0" encoding="UTF-8" standalone="no"?>
<!-- Generator: Adobe Illustrator 28.0.0, SVG Export Plug-In . SVG Version: 6.00 Build 0)  -->

<svg
   version="1.1"
   id="Layer_1"
   x="0px"
   y="0px"
   viewBox="0 0 100 32"
   xml:space="preserve"
   sodipodi:docname="logo.svg"
   width="100"
   height="32"
   inkscape:version="1.3.2 (091e20e, 2023-11-25, custom)"
   xmlns:inkscape="http://www.inkscape.org/namespaces/inkscape"
   xmlns:sodipodi="http://sodipodi.sourceforge.net/DTD/sodipodi-0.dtd"
   xmlns="http://www.w3.org/2000/svg"
   xmlns:svg="http://www.w3.org/2000/svg"
   xmlns:ns="&amp;ns_sfw;"><defs
   id="defs1" /><sodipodi:namedview
   id="namedview1"
   pagecolor="#ffffff"
   bordercolor="#999999"
   borderopacity="1"
   inkscape:showpageshadow="2"
   inkscape:pageopacity="0"
   inkscape:pagecheckerboard="0"
   inkscape:deskcolor="#d1d1d1"
   inkscape:zoom="2.2440971"
   inkscape:cx="250.4348"
   inkscape:cy="78.205173"
   inkscape:window-width="1920"
   inkscape:window-height="1027"
   inkscape:window-x="-8"
   inkscape:window-y="-8"
   inkscape:window-maximized="1"
   inkscape:current-layer="Layer_1" />
<style
   type="text/css"
   id="style1">
	.st0{fill:#FFFFFF;}
</style>
<metadata
   id="metadata1">
	<ns:sfw>
		<ns:slices />
		<ns:sliceSourceBounds
   bottomLeftOrigin="true"
   height="156.7377"
   width="500.8697851"
   x="0"
   y="-156.7377" />
	</ns:sfw>
</metadata>
<path
   class="st0"
   d="m 81.767241,7.3706896 c 0.948278,-1.6810342 2.500003,-3.4913791 3.06035,-4.0517241 2.586206,1.0775864 5,3.275862 4.655172,3.836207 -0.991379,1.6379313 -2.500003,3.4913795 -3.060344,4.0517245 -2.586212,-1.077587 -5,-3.2327588 -4.655178,-3.8362074 z M 100,14.784484 c -0.301719,1.465517 -2.112065,3.103448 -2.887931,3.362068 -0.64655,-1.37931 -1.379308,-2.198276 -2.068966,-2.198276 -0.862068,0 -0.905169,0.603449 -0.905169,1.37931 0,1.37931 0.991378,4.396553 0.991378,7.543104 0,3.448276 -2.413794,5.99138 -6.120688,5.99138 -3.3944,0 -5.270068,-2.225112 -6.106802,-5.779925 -2.217298,3.97339 -5.459784,5.779925 -7.944926,5.779925 -3.885075,0 -4.799464,-2.871653 -4.70732,-5.784292 -1.561158,2.758906 -4.56602,5.784292 -7.447848,5.784292 -2.941812,0 -3.980965,-2.560582 -3.742677,-5.542603 -1.762529,3.283154 -4.950922,5.542603 -8.024567,5.542603 -3.335381,0 -4.986278,-2.649621 -4.45203,-5.933838 -2.243863,2.757969 -6.420855,5.933838 -10.763487,5.933838 -4.95151,0 -7.106848,-2.670035 -7.362312,-6.015848 -2.389843,3.830252 -5.611068,6.145158 -9.448033,6.145158 -5.538835,0 -7.519952,-4.925401 -7.808248,-8.954289 -2.0527599,2.748908 -4.3606463,5.600882 -7.1917512,8.781874 -0.3017243,0.301725 -0.560345,0.474139 -0.8620691,0.474139 -0.9913794,0 -3.01724144,-4.396551 -3.1465518,-6.034482 C 1.1497358,23.474521 10.540521,13.340043 14.454516,8.9754084 11.810431,9.7732431 9.0843487,11.364408 5.6465537,13.836206 5.0431052,14.267242 3.3620706,10.344828 3.4051738,7.327586 7.3706911,4.3965519 13.405174,2.5431034 18.275863,2.5431034 c 6.810346,0 10.732758,3.7931034 10.732758,9.0517246 0,4.396551 -3.663792,9.224138 -9.008619,9.396551 -2.779121,0.07219 -4.560295,-1.487858 -5.471317,-3.414317 0.108894,2.979453 1.657966,6.647077 5.816144,6.647077 4.827587,0 6.98276,-3.103449 10.603448,-7.629311 2.758623,-3.405173 5.948277,-6.422414 10.603448,-6.422414 2.844828,0 4.784484,1.767241 4.784484,4.439655 0,3.232759 -3.793103,7.715517 -9.094827,7.715517 -0.90551,0 -1.730872,-0.119302 -2.4276,-0.355129 -0.01755,0.135939 -0.0293,0.269607 -0.0293,0.398233 0,1.50862 0.560344,2.413793 3.017243,2.413793 3.620688,0 7.025861,-2.155173 11.163792,-7.198275 4.051722,-4.956897 7.112067,-7.11207 10.344828,-7.11207 2.182196,0 3.838483,1.182704 4.56842,3.174617 C 68.211337,7.3912106 71.886828,2.9575006 75.000003,0 c 3.060344,1.2931035 5.25862,3.8362069 4.655171,4.3534483 -2.284484,2.0689657 -9.91379,10.3879307 -12.931033,15.3448277 -0.77586,1.293103 -1.508625,2.715517 -1.508625,3.405173 0,0.646551 0.387936,0.862068 0.818968,0.862068 2.844831,0 9.612069,-9.224138 13.448279,-13.275862 2.413788,0.991379 4.87069,3.103449 4.267241,3.836207 -3.18966,3.793104 -5.603448,6.896553 -5.603448,8.663794 0,0.474137 0.172411,0.775861 0.818961,0.775861 1.206897,0 2.327592,-1.077585 4.181039,-3.362068 0.38793,-0.474139 0.862068,-0.474139 1.163789,0.25862 0.818968,1.982758 2.025865,3.060345 2.974142,3.060345 1.120688,0 1.681036,-0.99138 1.681036,-2.499999 0,-1.810346 -0.387936,-4.137932 -0.387936,-5.172414 0,-3.49138 2.586211,-5.517242 5.818967,-5.517242 2.413794,0 4.568968,1.163792 5.603446,4.051725 z M 20.318562,8.4971465 c -1.451667,2.2688655 -2.802901,4.3883015 -4.1679,6.4552045 0.74185,0.416649 1.67994,0.737304 2.901064,0.737304 2.284483,0 4.784483,-1.25 4.784483,-3.793104 0,-1.543325 -0.957874,-2.9661501 -3.517647,-3.3994045 z M 35.469468,20.072148 c 0.453005,0.175013 0.984856,0.272679 1.556396,0.272679 3.060344,0 5.12931,-2.327585 5.12931,-3.879309 0,-0.689656 -0.431035,-1.163793 -1.120689,-1.163793 -1.729316,0 -4.337706,2.426831 -5.565017,4.770423 z m 25.651225,-3.218699 c 0,-0.86207 -0.474139,-1.379311 -1.249999,-1.379311 -2.543104,0 -6.379314,4.827587 -6.379314,7.241379 0,0.775863 0.431037,1.293105 1.336207,1.293105 2.801724,0 6.293106,-5.086207 6.293106,-7.155173 z"
   id="path1"
   style="fill:#f2c63e;stroke-width:0.199653;fill-opacity:1" />
</svg>
